<?xml version="1.0" encoding="UTF-8"?>
<svg width="752pt" height="752pt" version="1.1" viewBox="0 0 752 752" xmlns="http://www.w3.org/2000/svg">
 <g>
  <path d="m752 376c0 134.33-71.664 258.46-188 325.62-116.34 67.168-259.66 67.168-376 0-116.34-67.164-188-191.29-188-325.62s71.664-258.46 188-325.62c116.34-67.168 259.66-67.168 376 0 116.34 67.164 188 191.29 188 325.62" fill="#fff"/>
  <path d="m431.05 205.64v-16.68c0-16.906-13.828-30.734-30.734-30.734h-91.758c-16.906 0-30.734 13.832-30.734 30.734v16.68h27.207v-16.68c0-1.8828 1.6445-3.5273 3.5273-3.5273h91.758c1.8828 0 3.5273 1.6445 3.5273 3.5273v16.68zm-255.34 149.13v111.73c0 15.797 12.926 28.723 28.723 28.723h187.8v-19.832l30.609-4.8984c0.53125-1.3906 1.1055-2.7656 1.7109-4.125l-18.18-25.109 34.871-34.871 25.109 18.18c1.3633-0.60547 2.7383-1.1797 4.125-1.7109l4.8984-30.605h49.316l4.8984 30.605c1.2031 0.46484 2.3984 0.95312 3.5781 1.4688v-69.551c-0.47266 0.3125-0.94531 0.61328-1.4258 0.91797-25.254 15.977-75.453 25.676-131 29.109-3.8398 22.102-23.113 38.906-46.309 38.906-23.195 0-42.469-16.809-46.309-38.906-55.539-3.4297-105.73-13.133-131-29.117-0.47656-0.30078-0.95312-0.60547-1.4258-0.91016zm348.52-10.969c-23.031 14.574-70.383 23.527-123.18 26.812-2.9805-23.082-22.719-40.926-46.613-40.926-23.906 0-43.648 17.859-46.617 40.949-52.711-3.2617-100.02-12.184-123.17-26.836-3.1562-1.9961-6.168-4.125-8.9453-6.4062-10.328-8.4805-17.488-19.07-17.488-32.973l0.003906-70.012c0-8.1055 6.6094-14.715 14.715-14.715h72.008v47.852c0 7.0156 2.8672 13.387 7.4805 18s10.984 7.4805 18 7.4805h168.03c7.0156 0 13.387-2.8672 18-7.4805s7.4805-10.984 7.4805-18v-47.852h72.008c8.1055 0 14.715 6.6094 14.715 14.715l0.003906 70.016c0 13.902-7.1562 24.492-17.492 32.973-2.7773 2.2773-5.7812 4.4062-8.9414 6.4023zm-74.352-124.11h-190.88v47.852c0 3.1328 1.2891 5.9883 3.3594 8.0625 2.0703 2.0703 4.9297 3.3594 8.0625 3.3594h168.03c3.1328 0 5.9883-1.2891 8.0625-3.3594 2.0703-2.0703 3.3594-4.9297 3.3594-8.0625l-0.003906-47.852zm-128.38 157c0-18.141 14.691-32.949 32.949-32.949 18.254 0 32.949 14.809 32.949 32.949 0 18.199-14.75 32.949-32.949 32.949-18.199-0.003906-32.949-14.754-32.949-32.949zm195.58 56.895c6.3672 1.6289 12.379 4.1484 17.891 7.418l22.395-16.215 17.922 17.922-16.215 22.395c3.2695 5.5156 5.793 11.523 7.418 17.891l27.297 4.3711v25.34l-27.289 4.3711c-1.6289 6.3672-4.1484 12.379-7.418 17.891l16.215 22.395-17.922 17.922-22.395-16.215c-5.5156 3.2695-11.523 5.793-17.891 7.418l-4.3711 27.297h-25.34l-4.3711-27.289c-6.3672-1.6289-12.379-4.1484-17.891-7.418l-22.395 16.215-17.922-17.922 16.215-22.395c-3.2695-5.5156-5.7852-11.523-7.418-17.891l-27.297-4.3711v-25.34l27.297-4.3711c1.6289-6.3672 4.1484-12.379 7.418-17.891l-16.215-22.395 17.922-17.922 22.395 16.215c5.5156-3.2695 11.523-5.793 17.891-7.418l4.3711-27.289h25.34zm-21.91 22.094c21.805 0 39.484 17.676 39.484 39.48 0 21.805-17.676 39.48-39.484 39.48-21.805 0-39.48-17.676-39.48-39.48-0.007812-21.805 17.668-39.48 39.48-39.48z" fill="#8f304b" fill-rule="evenodd"/>
 </g>
</svg>
